<?xml version="1.0" encoding="UTF-8" standalone="no"?>
<!-- Created with Inkscape (http://www.inkscape.org/) -->

<svg
   width="109.9362mm"
   height="109.9218mm"
   viewBox="0 0 109.9362 109.9218"
   version="1.1"
   id="svg96782"
   inkscape:version="1.1.1 (26b7af14f2, 2022-01-19)"
   sodipodi:docname="logo.svg"
   xmlns:inkscape="http://www.inkscape.org/namespaces/inkscape"
   xmlns:sodipodi="http://sodipodi.sourceforge.net/DTD/sodipodi-0.dtd"
   xmlns:xlink="http://www.w3.org/1999/xlink"
   xmlns="http://www.w3.org/2000/svg"
   xmlns:svg="http://www.w3.org/2000/svg">
  <sodipodi:namedview
     id="namedview96784"
     pagecolor="#ffffff"
     bordercolor="#666666"
     borderopacity="1.0"
     inkscape:pageshadow="2"
     inkscape:pageopacity="0.0"
     inkscape:pagecheckerboard="0"
     inkscape:document-units="mm"
     showgrid="false"
     fit-margin-top="0"
     fit-margin-left="0"
     fit-margin-right="0"
     fit-margin-bottom="0"
     inkscape:zoom="0.75187991"
     inkscape:cx="-48.544986"
     inkscape:cy="342.4749"
     inkscape:window-width="1920"
     inkscape:window-height="1016"
     inkscape:window-x="0"
     inkscape:window-y="27"
     inkscape:window-maximized="1"
     inkscape:current-layer="layer1" />
  <defs
     id="defs96779">
    <linearGradient
       inkscape:collect="always"
       xlink:href="#linearGradient37607"
       id="linearGradient208334"
       gradientUnits="userSpaceOnUse"
       gradientTransform="matrix(26.57881,26.57881,-26.57881,26.57881,51.415336,105.35285)"
       x1="0"
       y1="0"
       x2="1"
       y2="0"
       spreadMethod="pad" />
    <linearGradient
       x1="0"
       y1="0"
       x2="1"
       y2="0"
       gradientUnits="userSpaceOnUse"
       gradientTransform="matrix(161.01434,-161.01434,-161.01434,-161.01434,493.62177,486.62177)"
       spreadMethod="pad"
       id="linearGradient37607">
      <stop
         style="stop-opacity:1;stop-color:#1d1d1b"
         offset="0"
         id="stop37601" />
      <stop
         style="stop-opacity:1;stop-color:#1d1d1b"
         offset="0.79908746"
         id="stop37603" />
      <stop
         style="stop-opacity:1;stop-color:#5acc11"
         offset="1"
         id="stop37605" />
    </linearGradient>
  </defs>
  <g
     inkscape:label="Layer 1"
     inkscape:groupmode="layer"
     id="layer1"
     transform="translate(-2.039,-57.9976)">
    <path
       d="m 89.856808,101.9065 c 0,24.25026 -19.658659,43.90891 -43.908904,43.90891 C 21.69766,145.81541 2.039,126.15676 2.039,101.9065 c 0,-24.25024 19.65866,-43.9089 43.908904,-43.9089 24.250245,0 43.908904,19.65866 43.908904,43.9089"
       style="fill:#5acc11;fill-opacity:1;fill-rule:nonzero;stroke:none;stroke-width:0.165071"
       id="path206844" />
    <path
       d="m 66.511811,101.95164 c 0,11.38945 -9.233102,20.62247 -20.622467,20.62247 -11.389604,0 -20.622547,-9.23302 -20.622547,-20.62247 0,-11.389602 9.232943,-20.622624 20.622547,-20.622624 11.389365,0 20.622467,9.233022 20.622467,20.622624"
       style="fill:#ffffff;fill-opacity:1;fill-rule:nonzero;stroke:none;stroke-width:0.165071"
       id="path207556" />
    <path
       d="m 26.810774,93.460011 c 1.746101,1.862662 2.443232,3.547008 2.757044,4.742179 0.353519,1.346806 0.252376,2.19509 0.992408,2.75696 1.078052,0.81833 2.197726,-0.29463 3.859862,0.44108 1.518092,0.67205 1.903247,2.18423 2.646715,1.98498 0.453142,-0.12128 0.643283,-0.77247 0.772068,-1.21307 0.468641,-1.60501 -0.44771,-2.302621 -0.11033,-3.63936 0.197491,-0.782774 0.593112,-0.865301 1.764476,-2.315725 0.898297,-1.112405 1.507067,-2.106171 1.874886,-2.757044 -0.171686,-0.948149 -0.560916,-2.116078 -1.544056,-2.757045 -0.797634,-0.520091 -1.385633,-0.301589 -1.874726,-0.882238 -0.620835,-0.736916 -0.168411,-1.675317 -0.22058,-3.198123 -0.02876,-0.831268 -0.214747,-2.04841 -0.992568,-3.529033 -1.466801,0.694894 -3.69209,1.965962 -5.844837,4.190772 -2.229443,2.303741 -3.441073,4.659013 -4.080362,6.175667"
       style="fill:#5acc11;fill-opacity:1;fill-rule:nonzero;stroke:none;stroke-width:0.165071"
       id="path207560" />
    <path
       d="m 27.692932,113.42082 c 0.743947,-2.07821 4.212102,-3.53367 6.727156,-2.8673 1.724131,0.45674 2.638965,1.81497 4.190611,1.43349 1.071341,-0.26332 1.055523,-1.01406 2.095306,-1.21291 1.592551,-0.30478 3.748733,1.05033 4.301101,2.75697 0.339697,1.04969 0.01837,2.06558 0.551329,2.3158 0.448828,0.211 0.892863,-0.40792 1.323317,-0.22058 0.615242,0.26796 0.287129,1.78349 0.441079,3.41863 0.261324,2.77238 1.673321,3.39673 1.323557,4.30113 -0.832626,2.15186 -10.323696,2.48564 -16.652515,-2.64675 -0.788525,-0.63953 -5.352788,-4.34072 -4.300941,-7.27848"
       style="fill:#5acc11;fill-opacity:1;fill-rule:nonzero;stroke:none;stroke-width:0.165071"
       id="path207564" />
    <path
       d="m 50.300535,80.777687 c -1.881677,1.65223 1.102498,5.547084 0,14.005641 -0.434608,3.335057 -1.256529,5.476222 -2.867294,6.175742 -1.132378,0.49181 -2.346963,0.13742 -2.867294,0.99241 -0.452104,0.74339 -0.101861,1.9436 0.551489,2.64696 0.782294,0.84221 1.908599,0.87385 2.205555,0.882 1.214745,0.0344 1.734757,-0.54926 5.072929,-2.42606 1.268752,-0.71343 1.225691,-0.64712 1.984976,-1.1029 1.949824,-1.17 2.924896,-1.75513 3.639362,-2.756961 0.258129,-0.361827 1.135494,-1.592151 1.102818,-3.198124 -0.04953,-2.405762 -2.094587,-3.397451 -1.764636,-5.514008 0.136854,-0.878164 0.661818,-1.543897 0.661818,-1.543897 0.467603,-0.645281 0.885115,-0.771749 1.323398,-1.213147 0.945192,-0.952143 0.996802,-2.37093 0.992408,-2.646715 -0.04394,-2.786444 -7.67107,-6.376913 -10.035529,-4.300941"
       style="fill:#5acc11;fill-opacity:1;fill-rule:nonzero;stroke:none;stroke-width:0.165071"
       id="path207568" />
    <path
       d="m 54.160317,107.68623 c -1.139808,-0.20684 -2.959728,-0.0272 -3.639123,1.10282 -0.582087,0.96732 -0.115123,2.27786 0.33075,3.52911 0.408723,1.14708 0.777181,1.37253 0.992408,2.53631 0.186545,1.00758 0.02157,1.43939 0.330989,1.65414 0.457057,0.31725 1.250057,-0.32372 2.977544,-1.3234 2.779653,-1.60844 3.312847,-1.44579 3.970111,-2.42621 0.643923,-0.96037 1.076933,-2.52576 0.441079,-3.30829 -0.524086,-0.64512 -1.309336,-0.18543 -3.308373,-0.88216 -1.268911,-0.44244 -1.235836,-0.72653 -2.095385,-0.88232"
       style="fill:#5acc11;fill-opacity:1;fill-rule:nonzero;stroke:none;stroke-width:0.165071"
       id="path207572" />
    <path
       d="m 69.965745,87.957986 c 5.14587,9.846826 4.69081,21.496234 -1.320601,29.877854 v 0 c -7.762465,10.82304 -23.640275,14.59492 -37.141004,7.75834 v 0 h -0.33011 c -0.274985,0.27517 -0.55037,0.55018 -0.825355,0.82535 v 0 c 6.7679,6.38281 13.5358,12.76544 20.3037,19.14825 v 0 c 3.907637,-0.44966 15.778346,-2.32668 25.916216,-12.21527 v 0 c 12.848257,-12.53233 13.278311,-28.53533 13.299722,-31.67977 v 0 C 84.513288,96.317318 79.157863,90.962293 73.802678,85.606869 v 0 c -1.278977,0.783572 -2.557955,1.567384 -3.836933,2.351117"
       style="fill:url(#linearGradient208334);stroke:none;stroke-width:0.165071"
       id="path207622" />
    <path
       d="m 45.955813,72.835227 c -16.029922,0 -29.070957,13.041274 -29.070957,29.071193 0,5.70367 1.652149,11.02818 4.501468,15.52206 l 1.932327,-1.93225 c -2.393859,-3.97283 -3.77286,-8.62305 -3.77286,-13.58981 0,-14.562637 11.847461,-26.410258 26.410022,-26.410258 14.562562,0 26.410183,11.847621 26.410183,26.410258 0,14.56273 -11.847621,26.41019 -26.410183,26.41019 -5.036019,0 -9.746642,-1.4173 -13.755501,-3.8734 l -1.929851,1.92985 c 4.527832,2.91301 9.912656,4.60466 15.685352,4.60466 16.029923,0 29.071198,-13.04129 29.071198,-29.0713 0,-16.029919 -13.041275,-29.071193 -29.071198,-29.071193"
       style="fill:#ffffff;fill-opacity:1;fill-rule:nonzero;stroke:none;stroke-width:0.165071"
       id="path207634" />
    <path
       d="M 73.093804,85.545432 68.577956,90.061121 57.534999,79.018164 62.050848,74.502476 Z"
       style="fill:#5acc11;fill-opacity:1;fill-rule:nonzero;stroke:none;stroke-width:0.165071"
       id="path207638" />
    <path
       d="m 27.698445,122.41545 -2.06982,-9.21689 -6.947177,6.40096 z"
       style="fill:#ffffff;fill-opacity:1;fill-rule:nonzero;stroke:none;stroke-width:0.165071"
       id="path207642" />
    <path
       d="m 64.745337,82.861089 2.06998,9.216884 6.947016,-6.40096 z"
       style="fill:#ffffff;fill-opacity:1;fill-rule:nonzero;stroke:none;stroke-width:0.165071"
       id="path207646" />
  </g>
</svg>
